HIERARCHY
ROOT Hips
{
  OFFSET 59.1352 85.6192 7.6966
  CHANNELS 6 Xposition Yposition Zposition Zrotation Xrotation Yrotation
  JOINT spine
  {
    OFFSET 0 6.3926 0.367606
    CHANNELS 3 Zrotation Xrotation Yrotation
    JOINT spine1
    {
      OFFSET 0 9.17611 0
      CHANNELS 3 Zrotation Xrotation Yrotation
      JOINT spine2
      {
        OFFSET 0 8.79238 0
        CHANNELS 3 Zrotation Xrotation Yrotation
        JOINT Neck
        {
          OFFSET 0 22.5737 1.07624
          CHANNELS 3 Zrotation Xrotation Yrotation
          JOINT Head
          {
            OFFSET 0 6.82011 0
            CHANNELS 3 Zrotation Xrotation Yrotation
            End Site
            {
              OFFSET 0 16.5085 -5.44427
            }
          }
        }
        JOINT RightShoulder
        {
          OFFSET -3.70221 9.49509 -0.515508
          CHANNELS 3 Zrotation Xrotation Yrotation
          JOINT RightArm
          {
            OFFSET 0 12.4537 0
            CHANNELS 3 Zrotation Xrotation Yrotation
            JOINT RightArmRoll
            {
              OFFSET 0 6.28685 0
              CHANNELS 3 Zrotation Xrotation Yrotation
              JOINT RightForeArm
              {
                OFFSET 0 18.3114 0
                CHANNELS 3 Zrotation Xrotation Yrotation
                JOINT RightForeArmRoll
                {
                  OFFSET 0 7.05482 0
                  CHANNELS 3 Zrotation Xrotation Yrotation
                  JOINT RightHand
                  {
                    OFFSET 0 14.1575 0
                    CHANNELS 3 Zrotation Xrotation Yrotation
                    End Site
                    {
                      OFFSET 0 0 0
                    }
                  }
                }
              }
            }
          }
        }
        JOINT LeftShoulder
        {
          OFFSET 3.70221 9.49509 -0.515508
          CHANNELS 3 Zrotation Xrotation Yrotation
          JOINT LeftArm
          {
            OFFSET 0 12.4537 0
            CHANNELS 3 Zrotation Xrotation Yrotation
            JOINT LeftArmRoll
            {
              OFFSET 0 6.28685 0
              CHANNELS 3 Zrotation Xrotation Yrotation
              JOINT LeftForeArm
              {
                OFFSET 0 18.3114 0
                CHANNELS 3 Zrotation Xrotation Yrotation
                JOINT LeftForeArmRoll
                {
                  OFFSET 0 7.05482 0
                  CHANNELS 3 Zrotation Xrotation Yrotation
                  JOINT LeftHand
                  {
                    OFFSET 0 14.1575 0
                    CHANNELS 3 Zrotation Xrotation Yrotation
                    End Site
                    {
                      OFFSET 0 0 0
                    }
                  }
                }
              }
            }
          }
        }
      }
    }
  }
  JOINT RightUpLeg
  {
    OFFSET -5.66616 -1.03903 -0.87161
    CHANNELS 3 Zrotation Xrotation Yrotation
    JOINT RightUpLegRoll
    {
      OFFSET 0 16.6005 0
      CHANNELS 3 Zrotation Xrotation Yrotation
      JOINT RightLeg
      {
        OFFSET 0 -20.5572 0
        CHANNELS 3 Zrotation Xrotation Yrotation
        JOINT RightLegRoll
        {
          OFFSET 0 20.6244 0
          CHANNELS 3 Zrotation Xrotation Yrotation
          JOINT RightFoot
          {
            OFFSET 0 17.1664 0
            CHANNELS 3 Zrotation Xrotation Yrotation
            JOINT RightToeBase
            {
              OFFSET 0 14.3502 0
              CHANNELS 3 Zrotation Xrotation Yrotation
              End Site
              {
                OFFSET 0.00608252 6.94971 -0.801061
              }
            }
          }
        }
      }
    }
  }
  JOINT LeftUpLeg
  {
    OFFSET 5.66616 -1.03903 -0.87161
    CHANNELS 3 Zrotation Xrotation Yrotation
    JOINT LeftUpLegRoll
    {
      OFFSET 0 16.6006 0
      CHANNELS 3 Zrotation Xrotation Yrotation
      JOINT LeftLeg
      {
        OFFSET 0 20.5571 0
        CHANNELS 3 Zrotation Xrotation Yrotation
        JOINT LeftLegRoll
        {
          OFFSET 0 20.8151 0
          CHANNELS 3 Zrotation Xrotation Yrotation
          JOINT LeftFoot
          {
            OFFSET 0 16.9757 0
            CHANNELS 3 Zrotation Xrotation Yrotation
            JOINT LeftToeBase
            {
              OFFSET 0 14.3502 0
              CHANNELS 3 Zrotation Xrotation Yrotation
              End Site
              {
                OFFSET -0.0272592 6.94971 -0.801061
              }
            }
          }
        }
      }
    }
  }
}
MOTION
Frames: 9
Frame Time: 0.00208333
55.3242 85.6062 5.13237 -1.16055 -2.60826 -1.4296 -0.391921 -1.30482 -0.194966 -0.776653 1.39423 -0.348156 -0.773056 3.03921 -0.335339 8.12397 10.3328 -1.88865 -4.16028 7.50918 0.450456 63.4085 -6.32623 -4.13155 108.407 16.84 1.81557 1.85441e-006 -2.21612e-006 -4.34136e-006 15.2354 6.12926 -1.09039 -3.6182e-008 2.28861e-006 -3.00794 8.02894 -4.95143 0.697689 -51.7284 -1.96788 0.441283 -116.287 16.0769 3.29095 5.08142e-006 -5.33885e-006 3.5044e-006 -10.7583 5.37299 1.0418 6.13746e-006 -1.41087e-006 3.00001 -8.02892 -4.95146 -0.697678 177.553 -0.65679 0.0747955 180 7.01548e-015 178.929 176.79 7.24403 179.747 -3.17858e-007 3.61995e-006 0.0754094 -18.4434 67.7699 19.3604 8.13178 25.2329 -3.46941 -176.086 -1.60929 0.766401 4.54188e-006 -4.6773e-006 -1.10738 -1.39545 -8.21979 0.395554 -1.37365e-006 -4.47614e-006 -0.172201 20.6751 70.3763 -21.7365 -8.13123 25.2746 3.42782 
55.3264 85.6053 5.13989 -1.16769 -2.62254 -1.4225 -0.391169 -1.29807 -0.192054 -0.775782 1.40771 -0.342348 -0.772257 3.05269 -0.329543 8.13471 10.2894 -1.8982 -4.14044 7.53133 0.442383 63.4162 -6.36667 -4.15506 108.409 16.8504 1.79201 1.85441e-006 -2.21612e-006 -4.34136e-006 15.2454 6.13998 -1.09126 -3.6182e-008 2.28861e-006 -3.00794 8.02894 -4.95143 0.697689 -51.7142 -1.96603 0.438423 -116.295 16.1111 3.30985 5.08142e-006 -5.33885e-006 3.5044e-006 -10.7583 5.33339 1.03722 6.13746e-006 -1.41087e-006 3.00001 -8.02892 -4.95146 -0.697678 177.563 -0.679883 0.0691143 180 7.01548e-015 178.929 176.793 7.23257 179.747 -3.17858e-007 3.61995e-006 0.0751699 -18.4412 67.7673 19.3581 8.13178 25.2329 -3.47058 -176.077 -1.61366 0.759511 4.54188e-006 -4.6773e-006 -1.10738 -1.39461 -8.23783 0.39557 -1.37365e-006 -4.47614e-006 -0.172248 20.6833 70.3842 -21.7454 -8.13121 25.2744 3.42816 
55.312 85.6061 5.16233 -1.17541 -2.63856 -1.41524 -0.390347 -1.29089 -0.188993 -0.774794 1.42206 -0.336246 -0.771345 3.06703 -0.323454 8.14535 10.2436 -1.90787 -4.119 7.55629 0.434127 63.4243 -6.40897 -4.17966 108.41 16.8612 1.76753 1.85441e-006 -2.21612e-006 -4.34136e-006 15.2557 6.15119 -1.09218 -3.6182e-008 2.28861e-006 -3.00794 8.02894 -4.95143 0.697689 -51.6999 -1.96453 0.435795 -116.302 16.1478 3.33007 5.08142e-006 -5.33885e-006 3.5044e-006 -10.7585 5.29102 1.03232 6.13746e-006 -1.41087e-006 3.00001 -8.02892 -4.95146 -0.697678 177.575 -0.704977 0.0630877 180 7.01548e-015 178.929 176.797 7.22117 179.746 -3.17858e-007 3.61995e-006 0.0749326 -18.4392 67.7649 19.3559 8.13178 25.2329 -3.4718 -176.067 -1.61946 0.751793 4.54188e-006 -4.6773e-006 -1.10739 -1.39406 -8.25703 0.39555 -1.37365e-006 -4.47614e-006 -0.172293 20.6924 70.3929 -21.7552 -8.13119 25.2741 3.42858 
55.3189 85.6066 5.15264 -1.18352 -2.6558 -1.40786 -0.389475 -1.28341 -0.185827 -0.773725 1.437 -0.329937 -0.770355 3.08198 -0.317161 8.15591 10.196 -1.91764 -4.09642 7.58322 0.425744 63.4327 -6.45259 -4.20504 108.412 16.8724 1.7424 1.85441e-006 -2.21612e-006 -4.34136e-006 15.2663 6.16273 -1.09313 -3.6182e-008 2.28861e-006 -3.00794 8.02894 -4.95143 0.697689 -51.6854 -1.96327 0.43333 -116.309 16.1861 3.35121 5.08142e-006 -5.33885e-006 3.5044e-006 -10.759 5.24672 1.0272 6.13746e-006 -1.41087e-006 3.00001 -8.02892 -4.95146 -0.697678 177.587 -0.731472 0.0568194 180 7.01548e-015 178.929 176.801 7.20983 179.745 -3.17858e-007 3.61995e-006 0.0746969 -18.4374 67.7627 19.354 8.13178 25.2329 -3.47305 -176.057 -1.62625 0.743496 4.54188e-006 -4.6773e-006 -1.10742 -1.39371 -8.27705 0.395506 -1.37365e-006 -4.47614e-006 -0.172338 20.702 70.4023 -21.7657 -8.13117 25.2737 3.42903 
55.3155 85.606 5.16026 -1.19186 -2.67372 -1.40042 -0.388577 -1.27575 -0.182602 -0.772612 1.45229 -0.32351 -0.769321 3.09727 -0.310749 8.16642 10.1475 -1.92746 -4.0732 7.61128 0.417287 63.4412 -6.49695 -4.23086 108.414 16.8838 1.7169 1.85441e-006 -2.21612e-006 -4.34136e-006 15.2771 6.17447 -1.0941 -3.6182e-008 2.28861e-006 -3.00794 8.02894 -4.95143 0.697689 -51.6709 -1.96215 0.430958 -116.316 16.2254 3.37289 5.08142e-006 -5.33885e-006 3.5044e-006 -10.7596 5.20131 1.02196 6.13746e-006 -1.41087e-006 3.00001 -8.02892 -4.95146 -0.697678 177.599 -0.758769 0.0504129 180 7.01548e-015 178.929 176.806 7.19851 179.744 -3.17858e-007 3.61995e-006 0.0744621 -18.4357 67.7606 19.3522 8.13178 25.2329 -3.47432 -176.047 -1.63363 0.734868 4.54188e-006 -4.6773e-006 -1.10744 -1.39347 -8.29755 0.395448 -1.37365e-006 -4.47614e-006 -0.172382 20.712 70.4121 -21.7766 -8.13114 25.2734 3.42951 
55.305 85.6451 5.15684 -1.20025 -2.69182 -1.39296 -0.387672 -1.26805 -0.179362 -0.771491 1.46766 -0.317053 -0.76828 3.11264 -0.304309 8.1769 10.0987 -1.93728 -4.0498 7.63962 0.408811 63.4497 -6.54149 -4.2568 108.415 16.8953 1.6913 1.85441e-006 -2.21612e-006 -4.34136e-006 15.2879 6.18625 -1.09507 -3.6182e-008 2.28861e-006 -3.00794 8.02894 -4.95143 0.697689 -51.6563 -1.96107 0.428609 -116.323 16.2649 3.3947 5.08142e-006 -5.33885e-006 3.5044e-006 -10.7602 5.15562 1.01669 6.13746e-006 -1.41087e-006 3.00001 -8.02892 -4.95146 -0.697678 177.611 -0.786265 0.0439718 180 7.01548e-015 178.929 176.81 7.18722 179.743 -3.17858e-007 3.61995e-006 0.0742275 -18.4341 67.7585 19.3503 8.13178 25.2329 -3.47559 -176.036 -1.64114 0.726157 4.54188e-006 -4.6773e-006 -1.10747 -1.39326 -8.31815 0.395386 -1.37365e-006 -4.47614e-006 -0.172427 20.7221 70.4219 -21.7877 -8.13112 25.273 3.43 
55.31 85.6365 5.14691 -1.20852 -2.70957 -1.38554 -0.386782 -1.26044 -0.176151 -0.770397 1.48286 -0.310655 -0.767265 3.12784 -0.297926 8.18738 10.0505 -1.94709 -4.02672 7.6674 0.40037 63.458 -6.58565 -4.28252 108.417 16.9066 1.66589 1.85441e-006 -2.21612e-006 -4.34136e-006 15.2987 6.19794 -1.09604 -3.6182e-008 2.28861e-006 -3.00794 8.02894 -4.95143 0.697689 -51.6418 -1.95991 0.426214 -116.33 16.304 3.41627 5.08142e-006 -5.33885e-006 3.5044e-006 -10.7608 5.11049 1.01149 6.13746e-006 -1.41087e-006 3.00001 -8.02892 -4.95146 -0.697678 177.623 -0.813361 0.0375997 180 7.01548e-015 178.929 176.814 7.17589 179.743 -3.17858e-007 3.61995e-006 0.0739925 -18.4323 67.7564 19.3485 8.13178 25.2329 -3.47686 -176.026 -1.64837 0.717612 4.54188e-006 -4.6773e-006 -1.1075 -1.39299 -8.33853 0.395332 -1.37365e-006 -4.47614e-006 -0.172471 20.7321 70.4316 -21.7985 -8.13109 25.2727 3.43048 
55.2911 85.6479 5.15366 -1.2165 -2.72646 -1.3782 -0.385928 -1.25304 -0.173016 -0.769365 1.49764 -0.304405 -0.766311 3.14262 -0.291691 8.19789 10.0034 -1.95682 -4.00444 7.69377 0.392019 63.4662 -6.62888 -4.30771 108.419 16.9177 1.64093 1.85441e-006 -2.21612e-006 -4.34136e-006 15.3092 6.20938 -1.09698 -3.6182e-008 2.28861e-006 -3.00794 8.02894 -4.95143 0.697689 -51.6273 -1.95859 0.423703 -116.338 16.3418 3.43718 5.08142e-006 -5.33885e-006 3.5044e-006 -10.7613 5.06674 1.00644 6.13746e-006 -1.41087e-006 3.00001 -8.02892 -4.95146 -0.697678 177.635 -0.839456 0.0314002 180 7.01548e-015 178.929 176.818 7.16452 179.742 -3.17858e-007 3.61995e-006 0.0737563 -18.4305 67.7541 19.3465 8.13178 25.2329 -3.4781 -176.016 -1.65488 0.709481 4.54188e-006 -4.6773e-006 -1.10752 -1.39258 -8.35832 0.395295 -1.37365e-006 -4.47614e-006 -0.172516 20.7416 70.4408 -21.8089 -8.13107 25.2723 3.43092 
55.2875 85.6538 5.14939 -1.22402 -2.74196 -1.37098 -0.385132 -1.24599 -0.169999 -0.768432 1.51172 -0.29839 -0.765452 3.1567 -0.285689 8.20846 9.95829 -1.96645 -3.98343 7.71789 0.383813 63.4739 -6.6706 -4.33203 108.42 16.9284 1.61671 1.85441e-006 -2.21612e-006 -4.34136e-006 15.3195 6.22044 -1.09788 -3.6182e-008 2.28861e-006 -3.00794 8.02894 -4.95143 0.697689 -51.613 -1.95698 0.421005 -116.345 16.3777 3.45706 5.08142e-006 -5.33885e-006 3.5044e-006 -10.7615 5.0252 1.00164 6.13746e-006 -1.41087e-006 3.00001 -8.02892 -4.95146 -0.697678 177.646 -0.86395 0.0254768 180 7.01548e-015 178.929 176.822 7.15313 179.741 -3.17858e-007 3.61995e-006 0.0735183 -18.4285 67.7516 19.3443 8.13178 25.2329 -3.4793 -176.007 -1.66025 0.702011 4.54188e-006 -4.6773e-006 -1.10753 -1.39195 -8.37717 0.395286 -1.37365e-006 -4.47614e-006 -0.172562 20.7504 70.4493 -21.8185 -8.13105 25.272 3.43132 
